<?xml version="1.0" standalone="no"?>
<!DOCTYPE svg PUBLIC "-//W3C//DTD SVG 20010904//EN"
 "http://www.w3.org/TR/2001/REC-SVG-20010904/DTD/svg10.dtd">
<svg version="1.0" xmlns="http://www.w3.org/2000/svg"
 width="454.000000pt" height="454.000000pt" viewBox="0 0 454.000000 454.000000"
 preserveAspectRatio="xMidYMid meet">
<metadata>
Created by potrace 1.11, written by Peter Selinger 2001-2013
</metadata>
<g transform="translate(0.000000,454.000000) scale(0.100000,-0.100000)"
fill="#000000" stroke="none">
<path d="M1987 4180 c-877 -132 -1544 -822 -1648 -1704 -23 -195 -3 -493 46
-686 136 -543 501 -1002 996 -1255 84 -43 251 -115 266 -115 2 0 3 87 3 193
l0 192 -113 58 c-419 215 -715 607 -819 1090 -19 87 -22 133 -22 307 0 175 3
220 23 310 64 300 197 556 401 772 288 307 663 476 1098 495 l132 6 0 -1497 0
-1497 63 7 c287 30 565 154 789 352 181 159 326 377 402 606 14 43 26 80 26
82 0 2 -85 4 -188 4 l-189 0 -29 -68 c-81 -191 -282 -404 -471 -501 l-43 -21
0 950 0 951 68 -36 c179 -94 363 -294 448 -489 l28 -66 188 0 c104 0 188 2
188 4 0 2 -12 39 -26 82 -38 114 -95 229 -166 336 -75 112 -271 313 -373 380
-80 53 -225 129 -300 157 l-50 19 -3 275 c-2 252 -4 276 -20 281 -140 43 -504
56 -705 26z"/>
<path d="M2890 3902 l0 -187 80 -39 c442 -215 766 -648 856 -1141 27 -151 25
-423 -4 -572 -77 -388 -298 -740 -610 -971 -266 -197 -551 -296 -889 -309
l-143 -6 0 882 0 881 -474 0 -474 0 9 43 c27 122 87 261 162 372 84 124 246
269 375 334 l42 21 0 -210 0 -210 180 0 180 0 0 440 0 440 -22 -4 c-13 -3 -50
-7 -83 -11 -148 -15 -361 -89 -515 -181 -375 -221 -624 -591 -685 -1019 -15
-106 -19 -252 -9 -329 l7 -46 473 0 474 0 0 -385 0 -385 -42 21 c-128 65 -284
203 -365 321 l-47 68 -198 0 c-109 0 -198 -3 -198 -6 0 -14 84 -167 129 -234
162 -242 423 -449 684 -541 l37 -13 0 -277 0 -278 53 -10 c139 -28 217 -35
397 -35 369 1 674 82 976 259 450 265 783 712 908 1220 70 283 68 638 -5 926
-119 475 -425 900 -836 1163 -124 78 -372 196 -415 196 -4 0 -8 -84 -8 -188z"/>
</g>
</svg>
