<?xml version="1.0" encoding="utf-8"?>
<!-- Generator: Adobe Illustrator 17.0.0, SVG Export Plug-In . SVG Version: 6.00 Build 0)  -->
<!DOCTYPE svg PUBLIC "-//W3C//DTD SVG 1.1//EN" "http://www.w3.org/Graphics/SVG/1.1/DTD/svg11.dtd">
<svg version="1.1" id="Layer_1" xmlns="http://www.w3.org/2000/svg" xmlns:xlink="http://www.w3.org/1999/xlink" x="0px" y="0px"
	 width="442.854px" height="80.747px" viewBox="0 0 442.854 80.747" enable-background="new 0 0 442.854 80.747"
	 xml:space="preserve">
<g>
	<g>
		<path fill="#FFFFFF" d="M7.57,44.055c-0.135-1.209-0.207-2.437-0.207-3.682s0.072-2.473,0.207-3.682
			C9.06,23.363,18.536,12.414,31.09,8.754c2.357-0.687,4.822-1.118,7.363-1.258c0.61-0.034,1.223-0.052,1.841-0.052
			s1.231,0.019,1.841,0.052v54.686v7.382c2.556-0.16,5.025-0.648,7.363-1.425c9.294-3.089,16.529-10.724,19.063-20.255h-7.712
			c-2.001,5.46-6.116,9.907-11.351,12.344V20.521c5.235,2.437,9.351,6.884,11.351,12.344h7.712
			c-2.534-9.531-9.769-17.166-19.063-20.255V1.137c-2.38-0.556-4.842-0.9-7.363-1.014c-0.61-0.027-1.224-0.044-1.841-0.044
			c-0.617,0-1.23,0.016-1.841,0.044c-2.522,0.113-4.983,0.457-7.363,1.014C14.43,5.03,1.749,19.258,0.169,36.692
			C0.059,37.905,0,39.132,0,40.373s0.059,2.469,0.169,3.682C1.63,60.18,12.589,73.562,27.408,78.56v-7.886
			C16.715,66.11,8.91,56.046,7.57,44.055z"/>
	</g>
	<path fill="#77C14B" d="M80.419,36.692C78.959,20.578,68.013,7.203,53.21,2.197v7.889c10.678,4.571,18.469,14.627,19.808,26.606
		c0.135,1.209,0.207,2.437,0.207,3.682c0,1.245-0.072,2.473-0.207,3.682c-1.49,13.329-10.966,24.278-23.519,27.938
		c-2.357,0.687-4.822,1.118-7.363,1.258c-0.61,0.034-1.223,0.052-1.841,0.052s-1.231-0.019-1.841-0.052v-36.56H18.72
		c1.222-7.184,5.957-13.186,12.37-16.171v8.808h7.363V11.184c-2.556,0.16-5.025,0.648-7.363,1.425
		C20.581,16.103,12.7,25.405,11.276,36.692c-0.152,1.206-0.231,2.435-0.231,3.682s0.079,2.476,0.231,3.682H31.09v16.171
		c-3.979-1.852-7.311-4.867-9.56-8.603H13.3c3.248,7.763,9.747,13.841,17.789,16.514l0,0V79.61c2.38,0.556,4.842,0.9,7.363,1.014
		c0.61,0.027,1.224,0.044,1.841,0.044c0.617,0,1.23-0.016,1.841-0.044c2.522-0.113,4.983-0.457,7.363-1.014
		c16.659-3.893,29.341-18.121,30.921-35.555c0.11-1.213,0.169-2.44,0.169-3.682C80.588,39.132,80.529,37.905,80.419,36.692z"/>
</g>
<g>
	<path fill="#FFFFFF" d="M104.092,41.157c1.827,1.124,4.497,2.061,7.308,2.061c4.169,0,6.605-2.202,6.605-5.387
		c0-2.951-1.686-4.638-5.949-6.277c-5.153-1.827-8.338-4.497-8.338-8.947c0-4.918,4.075-8.572,10.212-8.572
		c3.232,0,5.574,0.75,6.98,1.546l-1.125,3.326c-1.031-0.562-3.139-1.499-5.996-1.499c-4.31,0-5.949,2.577-5.949,4.731
		c0,2.951,1.92,4.403,6.277,6.09c5.34,2.061,8.057,4.638,8.057,9.275c0,4.872-3.607,9.087-11.055,9.087
		c-3.045,0-6.371-0.89-8.058-2.014L104.092,41.157z"/>
	<path fill="#FFFFFF" d="M133.742,18.016h-9.603v-3.467h23.375v3.467h-9.65v28.106h-4.123V18.016z"/>
	<path fill="#FFFFFF" d="M167.374,31.319h-12.273v11.383h13.679v3.419h-17.754V14.549h17.052v3.42h-12.976v9.978h12.273V31.319z"/>
	<path fill="#FFFFFF" d="M179.176,36.191l-3.279,9.931h-4.216l10.728-31.573h4.919l10.774,31.573h-4.357l-3.373-9.931H179.176z
		 M189.529,33.006l-3.092-9.088c-0.703-2.062-1.171-3.935-1.64-5.762h-0.094c-0.468,1.874-0.984,3.794-1.593,5.715l-3.092,9.135
		H189.529z"/>
	<path fill="#FFFFFF" d="M202.736,14.549h4.075v28.154h13.491v3.419h-17.566V14.549z"/>
	<path fill="#FFFFFF" d="M226.719,18.016h-9.604v-3.467h23.375v3.467h-9.649v28.106h-4.122V18.016z"/>
	<path fill="#FFFFFF" d="M248.076,14.549v13.21h15.271v-13.21h4.122v31.573h-4.122V31.319h-15.271v14.803h-4.075V14.549H248.076z"/>
	<path fill="#FFFFFF" d="M306.534,45.091c-1.499,0.75-4.497,1.499-8.339,1.499c-8.9,0-15.599-5.621-15.599-15.974
		c0-9.884,6.698-16.583,16.489-16.583c3.935,0,6.418,0.843,7.495,1.405l-0.983,3.326c-1.546-0.749-3.748-1.312-6.371-1.312
		c-7.401,0-12.32,4.731-12.32,13.023c0,7.729,4.45,12.695,12.133,12.695c2.482,0,5.013-0.515,6.651-1.312L306.534,45.091z"/>
	<path fill="#FFFFFF" d="M316.93,36.191l-3.279,9.931h-4.216l10.728-31.573h4.919l10.774,31.573h-4.357l-3.372-9.931H316.93z
		 M327.282,33.006l-3.092-9.088c-0.702-2.062-1.171-3.935-1.64-5.762h-0.093c-0.469,1.874-0.984,3.794-1.593,5.715l-3.092,9.135
		H327.282z"/>
	<path fill="#FFFFFF" d="M340.49,14.924c1.967-0.328,4.544-0.609,7.822-0.609c4.029,0,6.98,0.937,8.854,2.624
		c1.733,1.499,2.765,3.794,2.765,6.605c0,2.857-0.844,5.106-2.437,6.746c-2.154,2.295-5.668,3.466-9.649,3.466
		c-1.218,0-2.343-0.046-3.279-0.281v12.648h-4.075V14.924z M344.565,30.148c0.89,0.234,2.015,0.328,3.373,0.328
		c4.918,0,7.916-2.389,7.916-6.746c0-4.169-2.951-6.184-7.448-6.184c-1.779,0-3.139,0.141-3.841,0.328V30.148z"/>
	<path fill="#FFFFFF" d="M369.483,14.549v31.573h-4.075V14.549H369.483z"/>
	<path fill="#FFFFFF" d="M382.6,18.016h-9.604v-3.467h23.375v3.467h-9.649v28.106H382.6V18.016z"/>
	<path fill="#FFFFFF" d="M401.475,36.191l-3.279,9.931h-4.216l10.728-31.573h4.919L420.4,46.122h-4.357l-3.372-9.931H401.475z
		 M411.827,33.006l-3.092-9.088c-0.702-2.062-1.171-3.935-1.64-5.762h-0.093c-0.469,1.874-0.984,3.794-1.593,5.715l-3.092,9.135
		H411.827z"/>
	<path fill="#FFFFFF" d="M425.035,14.549h4.075v28.154h13.491v3.419h-17.566V14.549z"/>
</g>
<g>
	<path fill="#77C049" d="M106.379,54.16v14.151h-1.827V54.16H106.379z"/>
	<path fill="#77C049" d="M109.572,68.311V54.16h1.995l4.535,7.16c1.05,1.659,1.869,3.149,2.541,4.598l0.042-0.021
		c-0.168-1.89-0.21-3.611-0.21-5.816V54.16h1.722v14.151h-1.848l-4.493-7.181c-0.987-1.575-1.932-3.191-2.646-4.724l-0.063,0.021
		c0.105,1.785,0.147,3.485,0.147,5.837v6.047H109.572z"/>
	<path fill="#77C049" d="M126.497,68.311l-4.619-14.151h1.974l2.205,6.971c0.609,1.911,1.134,3.632,1.512,5.291h0.042
		c0.399-1.638,0.987-3.422,1.617-5.27l2.394-6.992h1.953l-5.06,14.151H126.497z"/>
	<path fill="#77C049" d="M142.435,61.676h-5.501v5.102h6.131v1.533h-7.958V54.16h7.643v1.533h-5.816v4.472h5.501V61.676z"/>
	<path fill="#77C049" d="M145.188,66.085c0.819,0.504,2.016,0.924,3.275,0.924c1.869,0,2.96-0.987,2.96-2.415
		c0-1.323-0.756-2.079-2.667-2.813c-2.31-0.819-3.737-2.016-3.737-4.01c0-2.205,1.827-3.842,4.577-3.842
		c1.449,0,2.499,0.336,3.128,0.693l-0.504,1.491c-0.462-0.252-1.407-0.672-2.688-0.672c-1.932,0-2.667,1.155-2.667,2.121
		c0,1.323,0.861,1.974,2.813,2.729c2.394,0.924,3.611,2.079,3.611,4.157c0,2.184-1.617,4.073-4.955,4.073
		c-1.365,0-2.855-0.399-3.611-0.903L145.188,66.085z"/>
	<path fill="#77C049" d="M158.479,55.713h-4.304V54.16h10.477v1.554h-4.325v12.598h-1.848V55.713z"/>
	<path fill="#77C049" d="M178.154,62.096c-0.104-1.974-0.23-4.346-0.209-6.11h-0.063c-0.483,1.659-1.071,3.422-1.784,5.375
		l-2.499,6.866h-1.386l-2.289-6.74c-0.672-1.995-1.239-3.821-1.638-5.501h-0.042c-0.042,1.764-0.147,4.136-0.273,6.257l-0.378,6.068
		h-1.743l0.987-14.151h2.331l2.415,6.845c0.588,1.743,1.071,3.296,1.428,4.766h0.063c0.357-1.428,0.861-2.981,1.491-4.766
		l2.52-6.845h2.33l0.883,14.151h-1.785L178.154,62.096z"/>
	<path fill="#77C049" d="M190.439,61.676h-5.5v5.102h6.131v1.533h-7.958V54.16h7.643v1.533h-5.815v4.472h5.5V61.676z"/>
	<path fill="#77C049" d="M193.444,68.311V54.16h1.995l4.535,7.16c1.049,1.659,1.868,3.149,2.54,4.598l0.042-0.021
		c-0.168-1.89-0.21-3.611-0.21-5.816V54.16h1.722v14.151h-1.848l-4.493-7.181c-0.987-1.575-1.932-3.191-2.646-4.724l-0.062,0.021
		c0.104,1.785,0.146,3.485,0.146,5.837v6.047H193.444z"/>
	<path fill="#77C049" d="M209.95,55.713h-4.304V54.16h10.477v1.554h-4.325v12.598h-1.848V55.713z"/>
	<path fill="#77C049" d="M232.041,67.849c-0.672,0.336-2.016,0.672-3.738,0.672c-3.988,0-6.991-2.52-6.991-7.16
		c0-4.43,3.003-7.433,7.391-7.433c1.764,0,2.876,0.378,3.359,0.63l-0.44,1.491c-0.693-0.336-1.68-0.588-2.855-0.588
		c-3.318,0-5.522,2.121-5.522,5.837c0,3.464,1.995,5.69,5.438,5.69c1.112,0,2.246-0.231,2.98-0.588L232.041,67.849z"/>
	<path fill="#77C049" d="M245.983,61.088c0,4.871-2.96,7.454-6.571,7.454c-3.738,0-6.362-2.897-6.362-7.181
		c0-4.493,2.792-7.433,6.571-7.433C243.484,53.929,245.983,56.889,245.983,61.088z M235.002,61.319c0,3.023,1.639,5.732,4.515,5.732
		c2.897,0,4.535-2.667,4.535-5.879c0-2.813-1.47-5.753-4.515-5.753C236.514,55.419,235.002,58.212,235.002,61.319z"/>
	<path fill="#77C049" d="M260.284,62.096c-0.104-1.974-0.231-4.346-0.21-6.11h-0.062c-0.483,1.659-1.071,3.422-1.785,5.375
		l-2.498,6.866h-1.387l-2.288-6.74c-0.672-1.995-1.239-3.821-1.638-5.501h-0.042c-0.042,1.764-0.147,4.136-0.272,6.257l-0.379,6.068
		h-1.742l0.986-14.151h2.331l2.415,6.845c0.588,1.743,1.07,3.296,1.428,4.766h0.062c0.357-1.428,0.861-2.981,1.49-4.766l2.52-6.845
		h2.331l0.882,14.151h-1.785L260.284,62.096z"/>
	<path fill="#77C049" d="M265.242,54.328c0.882-0.147,2.037-0.273,3.506-0.273c1.807,0,3.129,0.42,3.969,1.176
		c0.777,0.672,1.238,1.701,1.238,2.96c0,1.281-0.377,2.289-1.092,3.023c-0.965,1.029-2.54,1.554-4.324,1.554
		c-0.547,0-1.051-0.021-1.471-0.126v5.669h-1.826V54.328z M267.068,61.151c0.399,0.105,0.903,0.147,1.512,0.147
		c2.205,0,3.549-1.071,3.549-3.023c0-1.869-1.322-2.771-3.338-2.771c-0.799,0-1.407,0.063-1.723,0.147V61.151z"/>
	<path fill="#77C049" d="M276.939,63.86l-1.471,4.451h-1.889l4.808-14.151h2.204l4.83,14.151h-1.953l-1.512-4.451H276.939z
		 M281.579,62.432l-1.386-4.073c-0.314-0.924-0.525-1.764-0.734-2.583h-0.043c-0.209,0.84-0.44,1.701-0.713,2.562l-1.387,4.094
		H281.579z"/>
	<path fill="#77C049" d="M287.502,68.311V54.16h1.994l4.535,7.16c1.051,1.659,1.869,3.149,2.541,4.598l0.042-0.021
		c-0.168-1.89-0.21-3.611-0.21-5.816V54.16h1.722v14.151h-1.848l-4.493-7.181c-0.986-1.575-1.932-3.191-2.646-4.724l-0.063,0.021
		c0.105,1.785,0.147,3.485,0.147,5.837v6.047H287.502z"/>
	<path fill="#77C049" d="M304.322,68.311v-6.005l-4.473-8.146h2.079l1.995,3.905c0.545,1.071,0.965,1.932,1.406,2.918h0.042
		c0.399-0.924,0.882-1.848,1.428-2.918l2.036-3.905h2.079l-4.745,8.125v6.026H304.322z"/>
</g>
<g>
</g>
<g>
</g>
<g>
</g>
<g>
</g>
<g>
</g>
<g>
</g>
</svg>
